<svg width="100" height="100" viewBox="0 0 100 100" fill="none" xmlns="http://www.w3.org/2000/svg">
<path d="M42.853 85C44.4539 85 45.8261 84.0883 45.9405 82.2648V82.4928L46.6266 67.4494C46.6266 65.8539 46.1692 64.0305 44.1109 64.0305H23.4131L44.1109 42.3772C45.266 41.1358 45.9179 39.5115 45.9405 37.8186L46.741 17.8748C46.741 16.2793 46.3979 14.3419 44.3396 14.9117L4.65927 24.0289C3.17269 24.2568 2.25787 25.3965 2.25787 26.992V38.7303C2.25787 40.3258 3.17269 41.0096 4.54492 41.0096L21.3547 39.6421L2.48658 62.549L1.34306 63.6886C1 64.1445 1 65.1701 1 65.626V77.3644C1 78.8459 1.80047 79.7576 3.28705 79.9855L42.853 85Z" fill="#075985"/>
<path d="M97.056 81.1252C98.4282 81.0112 99 79.9855 99 78.618L98.5426 66.0819C98.5426 64.6003 97.8565 63.1188 96.0268 63.1188L75.7865 63.2327L94.6546 44.3146C95.1509 43.8916 95.5505 43.3677 95.8266 42.7779C96.1028 42.1882 96.249 41.5464 96.2555 40.8957L96.4842 26.992C96.5795 26.215 96.4044 25.429 95.9881 24.7653C95.5719 24.1015 94.9397 23.6002 94.1972 23.3451L52.8016 14C50.7433 14.114 50.1715 16.2793 50.1715 17.9888L49.4854 36.2231C49.4854 37.9326 49.8285 39.6421 51.8868 39.6421L70.9837 41.3515L51.5438 62.8908C51.341 63.194 51.0932 63.4523 50.8504 63.7056C50.5454 64.0236 50.2481 64.3336 50.0572 64.7143C49.5998 65.3981 49.4854 66.5377 49.4854 67.2215L49.028 82.3788C48.9137 84.2022 50.4002 84.7721 52.1155 84.7721L97.056 81.1252Z" fill="#075985"/>
</svg>
